<svg width="14" height="10" viewBox="0 0 14 10" fill="none" xmlns="http://www.w3.org/2000/svg">
<path d="M5.4487 9.27958C5.31743 9.27984 5.1874 9.25419 5.06608 9.20408C4.94475 9.15397 4.83452 9.08039 4.7417 8.98758L0.499696 4.74458C0.404122 4.6524 0.327864 4.54211 0.27537 4.42014C0.222877 4.29817 0.1952 4.16697 0.193953 4.0342C0.192706 3.90142 0.217915 3.76972 0.268109 3.64679C0.318303 3.52386 0.392477 3.41216 0.486302 3.3182C0.580128 3.22424 0.691726 3.14991 0.814585 3.09954C0.937444 3.04918 1.0691 3.02378 1.20188 3.02484C1.33466 3.0259 1.4659 3.05339 1.58794 3.10571C1.70998 3.15803 1.82038 3.23413 1.9127 3.32958L5.44769 6.86458L11.8127 0.501577C12.0002 0.313936 12.2546 0.208468 12.5198 0.208374C12.7851 0.20828 13.0396 0.313569 13.2272 0.501077C13.4148 0.688585 13.5203 0.942953 13.5204 1.20822C13.5205 1.47349 13.4152 1.72794 13.2277 1.91558L6.15569 8.98758C6.06287 9.08039 5.95264 9.15397 5.83131 9.20408C5.70999 9.25419 5.57996 9.27984 5.4487 9.27958Z" fill="#2FAB73"/>
</svg>
